<?xml version="1.0" encoding="utf-8"?>
<!-- Generator: Adobe Illustrator 22.1.0, SVG Export Plug-In . SVG Version: 6.00 Build 0)  -->
<svg version="1.1" id="Layer_1" xmlns="http://www.w3.org/2000/svg" xmlns:xlink="http://www.w3.org/1999/xlink" x="0px" y="0px"
	 viewBox="0 0 148 60" enable-background="new 0 0 148 60" xml:space="preserve">
<g>
	<g>
		<path fill="#414141" d="M4.75,25.094V2.046h15.1v2.557H7.618v7.429h11.99v2.557H7.618v7.948H19.85v2.557H4.75z"/>
		<path fill="#414141" d="M33.707,25.094V15.35L24.62,2.046h3.352l7.153,10.712l7.153-10.712h3.352L36.575,15.35v9.744H33.707z"/>
		<path fill="#414141" d="M51.228,25.094V2.046h15.1v2.557H54.096v7.429h11.99v2.557h-11.99v7.948h12.232v2.557H51.228z"/>
		<path fill="#414141" d="M73.482,25.094V2.046h10.262c4.008,0,6.462,2.419,6.462,5.874c0,2.902-1.935,4.838-4.043,5.287
			c2.453,0.38,4.492,2.902,4.492,5.667c0,3.697-2.453,6.22-6.669,6.22H73.482z M87.235,8.335c0-2.073-1.383-3.732-3.974-3.732H76.35
			v7.429h6.911C85.852,12.033,87.235,10.443,87.235,8.335z M87.684,18.563c0-2.107-1.452-3.973-4.25-3.973H76.35v7.948h7.084
			C86.094,22.537,87.684,21.017,87.684,18.563z"/>
		<path fill="#414141" d="M97.81,16.144V2.046h2.902v14.029c0,4.216,2.246,6.876,6.496,6.876c4.25,0,6.531-2.66,6.531-6.876V2.046
			h2.902V16.11c0,5.736-3.179,9.399-9.433,9.399C100.988,25.508,97.81,21.812,97.81,16.144z"/>
		<path fill="#414141" d="M131.329,25.094V15.35l-9.088-13.304h3.352l7.153,10.712l7.153-10.712h3.352l-9.053,13.304v9.744H131.329z
			"/>
	</g>
	<g>
		<path fill="#414141" d="M5.095,57.539V34.492h6.842c7.153,0,11.472,5.391,11.472,11.541c0,6.22-4.319,11.507-11.472,11.507H5.095z
			 M22.2,46.033c0-5.771-3.732-10.505-10.262-10.505H6.201v20.974h5.736C18.468,56.502,22.2,51.872,22.2,46.033z"/>
		<path fill="#414141" d="M34.261,57.539V34.492h1.106v23.048H34.261z"/>
		<path fill="#414141" d="M60.627,57.539l-7.015-9.952h-5.529v9.952h-1.106V34.492h7.948c3.732,0,6.807,2.315,6.807,6.53
			s-3.075,6.566-6.807,6.566l7.118,9.952H60.627z M60.523,41.022c0-3.178-2.211-5.494-5.598-5.494h-6.842v11.023h6.842
			C58.311,46.551,60.523,44.201,60.523,41.022z"/>
		<path fill="#414141" d="M72.515,57.539V34.492h14.098v1.036H73.62v9.641h12.751v1.036H73.62v10.297h12.992v1.037H72.515z"/>
		<path fill="#414141" d="M96.532,46.033c0-7.083,5.114-11.921,11.507-11.921c3.248,0,5.978,1.278,8.017,3.628l-0.864,0.76
			c-1.624-2.039-4.285-3.352-7.153-3.352c-5.771,0-10.297,4.388-10.297,10.885c0,6.427,4.526,10.885,10.297,10.885
			c2.868,0,5.529-1.313,7.153-3.352l0.898,0.726c-2.177,2.454-4.803,3.663-8.051,3.663C101.646,57.954,96.532,53.116,96.532,46.033z
			"/>
		<path fill="#414141" d="M131.951,57.539V35.528h-7.775v-1.036h16.69v1.036h-7.81v22.011H131.951z"/>
	</g>
</g>
</svg>
