<svg width="182" height="17" viewBox="0 0 182 17" fill="none" xmlns="http://www.w3.org/2000/svg">
<g clip-path="url(#clip0_557_4973)">
<path d="M10.6905 2.24507V0.270676H0V16.7187H10.6905V14.739H2.16741V9.29877H10.5177V7.31907H2.16741V2.24507H10.6905Z" fill="black"/>
<path d="M26.1762 0.270676L21.2446 7.7649L16.3077 0.270676H13.7686L20.1766 9.77645V16.7187H22.3387V9.77645L28.7153 0.270676H26.1762Z" fill="black"/>
<path d="M43.0655 2.24507V0.270676H32.375V16.7187H43.0655V14.739H34.5424V9.29877H42.8927V7.31907H34.5424V2.24507H43.0655Z" fill="black"/>
<path d="M57.1594 8.22667C57.9164 7.96075 58.5701 7.45724 59.0257 6.78919C59.4814 6.12114 59.7152 5.32329 59.6933 4.5114C59.6933 1.93725 57.8976 0.265381 55.1124 0.265381H47.8877V16.7187H55.2852C58.196 16.7187 59.9969 14.9991 59.9969 12.2339C60 11.3482 59.7274 10.4841 59.2179 9.76466C58.7085 9.0452 57.9881 8.50699 57.1594 8.22667ZM50.0551 7.31908V2.24509H54.7669C56.3689 2.24509 57.4474 3.26944 57.4474 4.7927C57.4474 6.31596 56.4003 7.31908 54.7669 7.31908H50.0551ZM57.7772 12.0162C57.7772 13.6987 56.6725 14.739 54.8978 14.739H50.0551V9.29348H54.8978C57.0233 9.29348 57.7772 10.7637 57.7772 12.0162Z" fill="black"/>
<path d="M75.912 0.265381V10.2648C75.912 13.2529 74.2419 15.0415 71.4515 15.0415C68.6611 15.0415 67.0067 13.3007 67.0067 10.2648V0.265381H64.8184V10.3072C64.8184 14.5532 67.2371 17 71.4515 17C75.6659 17 78.1108 14.5532 78.1108 10.286V0.265381H75.912Z" fill="black"/>
<path d="M94.1879 0.270676L89.251 7.7649L84.3142 0.270676H81.7803L88.1726 9.77645V16.7187H90.34V9.77645L96.7271 0.270676H94.1879Z" fill="black"/>
<path d="M106.276 0.265381H101.387V16.7187H106.276C111.58 16.7187 114.349 12.5841 114.349 8.50266C114.349 4.42118 111.569 0.265381 106.276 0.265381ZM106.276 15.5988H102.528V1.36935H106.276C110.313 1.36935 113.135 4.2991 113.135 8.49735C113.135 12.6956 110.37 15.5988 106.276 15.5988Z" fill="black"/>
<path d="M119.129 0.594437V16.379H119.6V0.594437H119.129Z" fill="black"/>
<path d="M119.925 0.270676H118.81V16.7187H119.925V0.270676Z" fill="black"/>
<path d="M130.945 9.76585C133.249 9.62785 135.453 8.14175 135.453 4.98908C135.453 1.71433 133.008 0.244156 130.584 0.244156H124.94V16.6975H126.071V9.77646H129.584L134.406 16.7134H135.846L130.945 9.76585ZM126.071 1.36935H130.584C131.538 1.36935 132.453 1.75351 133.127 2.43732C133.802 3.12112 134.181 4.04856 134.181 5.01561C134.181 5.98267 133.802 6.91011 133.127 7.59392C132.453 8.27773 131.538 8.66189 130.584 8.66189H126.071V1.36935Z" fill="black"/>
<path d="M149.944 1.37464V0.270676H139.871V16.7134H149.944V15.5988H141.012V8.81048H149.771V7.70652H141.012V1.37464H149.944Z" fill="black"/>
<path d="M166.76 13.4811L166.555 13.7253C165.975 14.408 165.256 14.9551 164.447 15.329C163.638 15.7028 162.759 15.8945 161.87 15.8907C157.875 15.8907 154.98 12.7805 154.98 8.49734C154.98 4.21417 157.875 1.11458 161.87 1.11458C162.755 1.10698 163.632 1.29264 164.441 1.65896C165.249 2.02528 165.97 2.56367 166.555 3.23759L166.765 3.49765L167.639 2.71214L167.419 2.46799C166.727 1.67005 165.873 1.03381 164.915 0.603141C163.957 0.172473 162.918 -0.0423637 161.87 -0.0265447C157.158 -0.0265447 153.766 3.54542 153.766 8.46549C153.766 13.3856 157.174 16.9575 161.87 16.9575C162.923 16.9787 163.967 16.7654 164.93 16.3325C165.892 15.8996 166.749 15.2578 167.44 14.4524L167.671 14.1976L166.76 13.4811Z" fill="black"/>
<path d="M170.158 0.270676V1.37464H175.493V16.7134H176.634V1.37464H182V0.270676H170.158Z" fill="black"/>
</g>
<defs>
<clipPath id="clip0_557_4973">
<rect width="182" height="17" fill="white"/>
</clipPath>
</defs>
</svg>
