<svg width="20" height="20" viewBox="0 0 20 20" fill="none" xmlns="http://www.w3.org/2000/svg">
<circle cx="10" cy="10" r="9.25" stroke="#D39D4E" stroke-width="1.5"/>
<circle cx="10" cy="5" r="2" fill="#D39D4E"/>
<path fill-rule="evenodd" clip-rule="evenodd" d="M4.26471 7.85306C4.34594 7.44689 4.74106 7.18348 5.14723 7.26471L8.18607 7.87248C9.38359 8.11198 10.6167 8.11198 11.8142 7.87248L14.8531 7.26471C15.2592 7.18348 15.6543 7.44689 15.7356 7.85306C15.8168 8.25923 15.5534 8.65435 15.1472 8.73558L12.1084 9.34335C10.7167 9.62169 9.28361 9.62169 7.8919 9.34335L4.85306 8.73558C4.44689 8.65435 4.18348 8.25923 4.26471 7.85306Z" fill="#D39D4E"/>
<path fill-rule="evenodd" clip-rule="evenodd" d="M6.59539 16.6264C6.24667 16.4029 6.14518 15.939 6.36871 15.5903L7.90791 13.189L9.21789 10.6553C9.40813 10.2874 9.86062 10.1433 10.2286 10.3336C10.5965 10.5238 10.7406 10.9763 10.5503 11.3443L9.22435 13.9088C9.21369 13.9295 9.20208 13.9496 9.18955 13.9691L7.63154 16.3997C7.40802 16.7485 6.94411 16.85 6.59539 16.6264Z" fill="#D39D4E"/>
<path fill-rule="evenodd" clip-rule="evenodd" d="M13.4046 16.6264C13.7533 16.4029 13.8548 15.939 13.6313 15.5903L12.0921 13.189L10.7821 10.6553C10.5919 10.2874 10.1394 10.1433 9.77143 10.3336C9.40349 10.5238 9.25943 10.9763 9.44967 11.3443L10.7756 13.9088C10.7863 13.9295 10.7979 13.9496 10.8104 13.9691L12.3685 16.3997C12.592 16.7485 13.0559 16.85 13.4046 16.6264Z" fill="#D39D4E"/>
<path d="M8 8H12L11.2425 11.0299C11.1 11.6 10.5877 12 10 12C9.41229 12 8.9 11.6 8.75746 11.0299L8 8Z" fill="#D39D4E"/>
</svg>
