<?xml version="1.0" encoding="utf-8"?>
<!-- Generator: Adobe Illustrator 23.0.3, SVG Export Plug-In . SVG Version: 6.00 Build 0)  -->
<svg version="1.1" id="Layer_1" xmlns="http://www.w3.org/2000/svg" xmlns:xlink="http://www.w3.org/1999/xlink" x="0px" y="0px"
	 viewBox="0 0 170 45.97" style="enable-background:new 0 0 170 45.97;" xml:space="preserve">
<style type="text/css">
	.st0{clip-path:url(#SVGID_2_);enable-background:new    ;}
	.st1{fill:#FFFFFF;}
	.st2{fill:#3B79B9;}
	.st3{fill:none;stroke:#3B79B9;stroke-miterlimit:10;}
</style>
<g>
	<path class="st1" d="M46.25,18c0-2.69,1.65-4.29,3.69-4.29c1.01,0,1.81,0.49,2.32,1.04L51.5,15.7c-0.41-0.42-0.9-0.71-1.53-0.71
		c-1.31,0-2.25,1.13-2.25,2.98c0,1.88,0.87,3.01,2.22,3.01c0.71,0,1.27-0.34,1.72-0.84l0.76,0.92c-0.65,0.77-1.49,1.2-2.54,1.2
		C47.86,22.24,46.25,20.73,46.25,18z"/>
	<path class="st1" d="M53.42,18.48v-4.62h1.43v4.73c0,1.79,0.66,2.38,1.63,2.38c0.98,0,1.66-0.59,1.66-2.38v-4.73h1.37v4.62
		c0,2.7-1.17,3.76-3.04,3.76S53.42,21.18,53.42,18.48z"/>
	<path class="st1" d="M60.74,21.03l0.83-1c0.58,0.56,1.35,0.94,2.1,0.94c0.91,0,1.4-0.42,1.4-1.06c0-0.68-0.52-0.89-1.25-1.21
		l-1.1-0.49c-0.79-0.34-1.63-0.98-1.63-2.18c0-1.31,1.13-2.32,2.7-2.32c0.94,0,1.85,0.4,2.48,1.05l-0.73,0.93
		c-0.51-0.44-1.06-0.71-1.75-0.71c-0.76,0-1.26,0.36-1.26,0.97c0,0.65,0.61,0.88,1.28,1.16l1.09,0.47c0.96,0.41,1.63,1.03,1.63,2.22
		c0,1.33-1.08,2.44-2.89,2.44C62.56,22.24,61.51,21.8,60.74,21.03z"/>
	<path class="st1" d="M69.28,15.09h-2.32v-1.23h6.08v1.23h-2.33v7h-1.43V15.09z"/>
	<path class="st1" d="M73.52,17.94c0-2.66,1.45-4.23,3.55-4.23s3.55,1.58,3.55,4.23c0,2.66-1.45,4.29-3.55,4.29
		S73.52,20.61,73.52,17.94z M79.16,17.94c0-1.85-0.82-2.96-2.08-2.96c-1.27,0-2.08,1.12-2.08,2.96s0.82,3.03,2.08,3.03
		C78.34,20.97,79.16,19.79,79.16,17.94z"/>
	<path class="st1" d="M82.14,13.87h1.62l1.42,4.02c0.18,0.52,0.34,1.08,0.52,1.61h0.05c0.18-0.54,0.33-1.09,0.51-1.61l1.39-4.02
		h1.62v8.22h-1.31v-3.76c0-0.76,0.11-1.85,0.18-2.62h-0.05l-0.65,1.91l-1.32,3.69h-0.85l-1.33-3.69l-0.64-1.91h-0.05
		c0.07,0.76,0.18,1.86,0.18,2.62v3.76h-1.29V13.87z"/>
	<path class="st1" d="M91.2,13.87h4.85v1.23h-3.42v2.11h2.9v1.23h-2.9v2.43h3.54v1.23H91.2V13.87z"/>
	<path class="st1" d="M97.72,13.87h2.71c1.67,0,2.97,0.6,2.97,2.44c0,1.77-1.29,2.57-2.97,2.57h-1.29v3.21h-1.43V13.87z
		 M100.28,17.71c1.1,0,1.7-0.47,1.7-1.4c0-0.95-0.6-1.27-1.7-1.27h-1.14v2.68H100.28z M100.16,18.48l1.03-0.87l2.51,4.47h-1.61
		L100.16,18.48z"/>
	<path class="st1" d="M106.83,18c0-2.69,1.65-4.29,3.69-4.29c1.01,0,1.81,0.49,2.32,1.04l-0.76,0.94c-0.41-0.42-0.9-0.71-1.53-0.71
		c-1.31,0-2.25,1.13-2.25,2.98c0,1.88,0.87,3.01,2.22,3.01c0.71,0,1.27-0.34,1.72-0.84l0.76,0.92c-0.65,0.77-1.49,1.2-2.54,1.2
		C108.43,22.24,106.83,20.73,106.83,18z"/>
	<path class="st1" d="M114.23,13.87h4.85v1.23h-3.42v2.11h2.9v1.23h-2.9v2.43h3.54v1.23h-4.97V13.87z"/>
	<path class="st1" d="M120.75,13.87h2.71c1.67,0,2.97,0.6,2.97,2.44c0,1.77-1.29,2.57-2.97,2.57h-1.29v3.21h-1.43V13.87z
		 M123.31,17.71c1.1,0,1.7-0.47,1.7-1.4c0-0.95-0.6-1.27-1.7-1.27h-1.14v2.68H123.31z M123.19,18.48l1.03-0.87l2.51,4.47h-1.61
		L123.19,18.48z"/>
	<path class="st1" d="M129.36,15.09h-2.32v-1.23h6.08v1.23h-2.33v7h-1.43V15.09z"/>
	<path class="st1" d="M134.35,13.87h1.43v8.22h-1.43V13.87z"/>
	<path class="st1" d="M137.71,13.87h4.87v1.23h-3.44v2.33h2.93v1.23h-2.93v3.44h-1.43V13.87z"/>
	<path class="st1" d="M143.88,13.87h1.43v8.22h-1.43V13.87z"/>
	<path class="st1" d="M147.24,13.87h4.85v1.23h-3.42v2.11h2.9v1.23h-2.9v2.43h3.54v1.23h-4.97V13.87z"/>
	<path class="st1" d="M153.76,13.87h2.15c2.47,0,3.93,1.36,3.93,4.08c0,2.72-1.46,4.14-3.85,4.14h-2.22V13.87z M155.81,20.91
		c1.62,0,2.55-0.94,2.55-2.96c0-2.02-0.93-2.9-2.55-2.9h-0.63v5.86H155.81z"/>
</g>
<g>
	<path class="st1" d="M46.48,27.77h2.09c1.34,0,2.33,0.41,2.33,1.61c0,0.62-0.34,1.22-0.91,1.42v0.04c0.72,0.16,1.26,0.67,1.26,1.55
		c0,1.31-1.07,1.92-2.51,1.92h-2.26V27.77z M48.47,30.47c0.91,0,1.3-0.36,1.3-0.92c0-0.63-0.43-0.87-1.28-0.87h-0.85v1.79H48.47z
		 M48.62,33.4c0.96,0,1.5-0.34,1.5-1.08c0-0.69-0.52-0.99-1.5-0.99h-0.98v2.07H48.62z"/>
	<path class="st1" d="M51.7,36.22l0.21-0.89c0.09,0.03,0.24,0.07,0.35,0.07c0.52,0,0.82-0.35,0.98-0.84l0.09-0.31L51.4,29.4h1.17
		l0.85,2.41c0.15,0.44,0.29,0.92,0.43,1.39h0.04c0.12-0.46,0.25-0.94,0.38-1.39L55,29.4h1.11l-1.77,5.13
		c-0.41,1.11-0.92,1.79-2,1.79C52.07,36.32,51.88,36.28,51.7,36.22z"/>
	<path class="st1" d="M58.7,27.77h2.09c1.34,0,2.33,0.41,2.33,1.61c0,0.62-0.34,1.22-0.91,1.42v0.04c0.72,0.16,1.26,0.67,1.26,1.55
		c0,1.31-1.07,1.92-2.51,1.92H58.7V27.77z M60.69,30.47c0.91,0,1.3-0.36,1.3-0.92c0-0.63-0.43-0.87-1.28-0.87h-0.85v1.79H60.69z
		 M60.84,33.4c0.96,0,1.5-0.34,1.5-1.08c0-0.69-0.52-0.99-1.5-0.99h-0.98v2.07H60.84z"/>
	<path class="st1" d="M64.26,27.89c0-0.39,0.3-0.65,0.71-0.65c0.41,0,0.71,0.26,0.71,0.65c0,0.38-0.3,0.65-0.71,0.65
		C64.57,28.54,64.26,28.27,64.26,27.89z M64.39,29.4h1.15v4.91h-1.15V29.4z"/>
	<path class="st1" d="M66.45,33.69l2.31-3.38h-2.06V29.4h3.5v0.62l-2.31,3.38h2.39v0.92h-3.83V33.69z"/>
	<path class="st1" d="M71.09,29.4h0.94l0.09,0.88h0.03c0.35-0.64,0.87-1,1.4-1c0.25,0,0.41,0.03,0.56,0.1l-0.2,1
		c-0.17-0.05-0.3-0.08-0.5-0.08c-0.39,0-0.86,0.27-1.16,1.02v2.99h-1.15V29.4z"/>
	<path class="st1" d="M74.11,32.99c0-1.05,0.87-1.6,2.89-1.81c-0.02-0.53-0.23-0.97-0.89-0.97c-0.49,0-0.95,0.22-1.38,0.48
		l-0.42-0.77c0.54-0.34,1.24-0.64,2.01-0.64c1.23,0,1.83,0.76,1.83,2.12v2.91h-0.94l-0.09-0.54h-0.03
		c-0.44,0.38-0.94,0.66-1.52,0.66C74.7,34.43,74.11,33.84,74.11,32.99z M77,32.99v-1.1c-1.33,0.17-1.77,0.52-1.77,1.01
		c0,0.43,0.3,0.62,0.71,0.62C76.33,33.52,76.63,33.33,77,32.99z"/>
	<path class="st1" d="M79.37,32.65v-2.34h-0.7v-0.86l0.76-0.05l0.14-1.34h0.96v1.34h1.25v0.92h-1.25v2.34c0,0.58,0.22,0.86,0.7,0.86
		c0.17,0,0.37-0.06,0.51-0.11l0.2,0.85c-0.27,0.09-0.61,0.18-1,0.18C79.79,34.43,79.37,33.71,79.37,32.65z"/>
	<path class="st1" d="M82.14,31.86c0-1.6,1.11-2.58,2.26-2.58c1.33,0,2.03,0.96,2.03,2.33c0,0.22-0.02,0.44-0.05,0.56h-3.12
		c0.1,0.87,0.66,1.37,1.45,1.37c0.42,0,0.78-0.13,1.14-0.36l0.39,0.72c-0.47,0.32-1.06,0.53-1.68,0.53
		C83.21,34.43,82.14,33.48,82.14,31.86z M85.44,31.38c0-0.76-0.34-1.22-1.01-1.22c-0.57,0-1.08,0.43-1.18,1.22H85.44z"/>
</g>
<g>
	<path class="st1" d="M87.07,27.12h-0.58v-0.3h1.52v0.3h-0.58v1.71h-0.36V27.12z"/>
	<path class="st1" d="M88.29,26.82h0.4l0.36,0.98c0.04,0.13,0.08,0.26,0.13,0.4h0.01c0.04-0.13,0.08-0.27,0.13-0.4l0.35-0.98h0.4
		v2.02h-0.33v-0.92c0-0.19,0.03-0.45,0.05-0.64h-0.01l-0.16,0.47l-0.33,0.91h-0.21l-0.33-0.91l-0.16-0.47h-0.01
		c0.02,0.19,0.05,0.46,0.05,0.64v0.92h-0.32V26.82z"/>
</g>
<path class="st2" d="M11.82,14.69c0,0,4.1-1.48,5.65-1.24c1.88,0.29,2.91,1.35,4.64,1.24c2.18-0.13,4.18-1.93,4.18-1.93l2.94,9.84
	c0,0-1.58,2.23-5.23,2.32c-1.66,0.04-2.24-1.26-4.49-1.41c-1.92-0.13-4.87,1.45-4.87,1.45L11.82,14.69z"/>
<rect x="13.73" y="14.36" transform="matrix(0.9633 -0.2684 0.2684 0.9633 -5.7387 4.6751)" class="st2" width="1" height="17.93"/>
</svg>
